# xmcd CD database file
#
# Track frame offsets:
#	150
#	14795
#	30612
#	44987
#	58865
#	73957
#	88297
#	105237
#	120805
#	134730
#	150027
#	164425
#	177472
#	191837
#	207762
#	223030
#	237657
#	253155
#
# Disc length: 3551 seconds
#
# Revision: 3
# Processed by: cddbd v1.5.2PL0 Copyright (c) Steve Scherf et al.
# Submitted via: CDex 1.51
#
DISCID=150ddd12
DTITLE=Bessie Smith - The Complete Recordings Vol. 2 [CD2)
DYEAR=1991
DGENRE=Blues
TTITLE0=Cold In Hand Blues
TTITLE1=You've Been a Good Ole Wagon
TTITLE2=Cake Walkin' babies (From Home)
TTITLE3=The Yellow Dog Blues
TTITLE4=Soft Pedal Blues
TTITLE5=Dixie Flyer Blues
TTITLE6=Nashville Woman's Blues
TTITLE7=Careless Love Blues
TTITLE8=J.C. Holmes Blues
TTITLE9=I Ain't Goin' to Play Second Fiddle
TTITLE10=He's Gone Blues
TTITLE11=Nobody's Blues But Mine
TTITLE12=I Ain't Got Nobody
TTITLE13=My Man Blues
TTITLE14=New Gulf Coast Blues
TTITLE15=Florida Bound Blues
TTITLE16=At the Christmas Ball
TTITLE17=I've Been Mistreated and I Don't Like It
EXTD=YEAR: 1991
EXTT0=
EXTT1=
EXTT2=
EXTT3=
EXTT4=
EXTT5=
EXTT6=
EXTT7=
EXTT8=
EXTT9=
EXTT10=
EXTT11=
EXTT12=
EXTT13=
EXTT14=
EXTT15=
EXTT16=
EXTT17=
PLAYORDER=
